<svg xmlns="http://www.w3.org/2000/svg"  width="1200" height="900" preserveAspectRatio="xMidYMid" viewBox="0 0 2820 2000">
<g transform="translate(1410,1000) scale(-1,1) translate(-1410,-1000)"><g transform="translate(2155.9597840850793,153.87471345684162) scale(100)" opacity="0.9">
  <path  d="M10.7724 0 C10.7724 2.5944 8.140616307578348 8.911161049649447 5.893800000000001 10.208361049649447 S-3.1393836924216494 10.626372059727487 -5.386199999999997 9.329172059727487 S-11.7876 2.594400000000001 -11.7876 1.443564660962934e-15 S-7.633016307578352 -8.031972059727483 -5.386200000000004 -9.329172059727485 S3.646983692421643 -11.505561049649451 5.893799999999992 -10.208361049649453 S10.7724 -2.5944000000000025 10.7724 -2.6384770358269893e-15" fill="#000000" stroke-width="0">
    <animateTransform attributeName="transform" type="rotate" dur="100s" repeatCount="indefinite" values="0;120"></animateTransform>
  </path>
</g><g transform="translate(2305.1517409020953,-15.350343851790058) scale(100)" opacity="0.9">
  <path d="M12.926879999999999 0 C12.926879999999999 3.1132799999999996 9.768739569094018 10.693393259579336 7.072560000000001 12.250033259579336 S-3.7672604309059796 12.751646471672984 -6.463439999999997 11.195006471672984 S-14.145119999999999 3.1132800000000014 -14.145119999999999 1.7322775931555208e-15 S-9.159619569094021 -9.63836647167298 -6.463440000000005 -11.195006471672981 S4.3763804309059715 -13.806673259579341 7.0725599999999895 -12.250033259579343 S12.926879999999999 -3.1132800000000027 12.926879999999999 -3.166172442992387e-15" fill="#000000" stroke-width="0">
    <animateTransform attributeName="transform" type="rotate" dur="50s" repeatCount="indefinite" values="0;120"></animateTransform>
  </path>
</g><g transform="translate(2663.2124372629332,-421.4904813925059) scale(100)" opacity="0.9">
  <path d="M18.097631999999997 0 C18.097631999999997 4.358591999999999 13.676235396731622 14.97075056341107 9.901584 17.15004656341107 S-5.274164603268371 17.852305060342175 -9.048815999999995 15.673009060342176 S-19.803167999999996 4.358592000000002 -19.803167999999996 2.4251886304177288e-15 S-12.82346739673163 -13.493713060342172 -9.048816000000008 -15.673009060342173 S6.126932603268361 -19.329342563411075 9.901583999999986 -17.150046563411077 S18.097631999999997 -4.358592000000003 18.097631999999997 -4.4326414201893415e-15" fill="#000000" stroke-width="0">
    <animateTransform attributeName="transform" type="rotate" dur="33.333333333333336s" repeatCount="indefinite" values="0;120"></animateTransform>
  </path>
</g></g>
</svg>